<svg width="18" height="21" viewBox="0 0 18 21" fill="none" xmlns="http://www.w3.org/2000/svg">
<path d="M12.6497 0.700014C13.0742 0.699017 13.4099 1.02885 13.4109 1.46863L13.4119 2.21826C16.1665 2.43415 17.9862 4.31121 17.9891 7.18976L18 15.6155C18.0039 18.754 16.0322 20.685 12.8718 20.69L5.15189 20.7C2.0112 20.704 0.0148232 18.727 0.0108739 15.5796L6.62739e-06 7.25273C-0.00393603 4.35519 1.75153 2.48312 4.50618 2.23025L4.50519 1.48063C4.5042 1.04085 4.83002 0.710012 5.26444 0.710012C5.69887 0.709012 6.02469 1.03885 6.02567 1.47863L6.02666 2.17828L11.8914 2.17028L11.8904 1.47063C11.8894 1.03085 12.2152 0.701016 12.6497 0.700014ZM13.0525 14.8919H13.0426C12.5884 14.9029 12.2241 15.2837 12.234 15.7435C12.235 16.2032 12.6013 16.5821 13.0554 16.5921C13.5185 16.5911 13.8937 16.2102 13.8927 15.7405C13.8927 15.2707 13.5165 14.8919 13.0525 14.8919ZM4.9169 14.8929C4.46273 14.9129 4.1073 15.2937 4.10828 15.7535C4.12902 16.2132 4.5042 16.5731 4.95837 16.5521C5.40366 16.5321 5.75811 16.1513 5.73737 15.6915C5.7275 15.2417 5.3612 14.8919 4.9169 14.8929ZM8.98469 14.8879C8.53052 14.9089 8.17607 15.2887 8.17607 15.7485C8.19681 16.2082 8.57199 16.5671 9.02616 16.5471C9.47046 16.5261 9.8259 16.1463 9.80516 15.6855C9.79529 15.2367 9.42899 14.8869 8.98469 14.8879ZM4.91197 11.2947C4.4578 11.3147 4.10335 11.6955 4.10433 12.1553C4.12408 12.615 4.50025 12.9749 4.95442 12.9539C5.39872 12.9339 5.75317 12.5531 5.73244 12.0933C5.72256 11.6435 5.35725 11.2937 4.91197 11.2947ZM8.98074 11.2597C8.52657 11.2797 8.17113 11.6605 8.17212 12.1203C8.19187 12.5801 8.56804 12.9389 9.02221 12.9189C9.46651 12.8979 9.82096 12.5181 9.80121 12.0583C9.79035 11.6085 9.42504 11.2587 8.98074 11.2597ZM13.0485 11.2647C12.5944 11.2747 12.2389 11.6445 12.2399 12.1043V12.1153C12.2498 12.5751 12.625 12.9239 13.0801 12.9139C13.5244 12.9029 13.8789 12.5221 13.869 12.0623C13.8483 11.6225 13.4918 11.2637 13.0485 11.2647ZM11.8934 3.70951L6.02864 3.7175L6.02962 4.5261C6.02962 4.95688 5.70479 5.29671 5.27037 5.29671C4.83594 5.29771 4.50914 4.95888 4.50914 4.5281L4.50815 3.75848C2.58286 3.95139 1.51754 5.08282 1.52049 7.25073L1.52148 7.56158L16.4696 7.54159V7.19176C16.4272 5.04284 15.349 3.91541 13.4138 3.74749L13.4148 4.5171C13.4148 4.94689 13.0801 5.28772 12.6556 5.28772C12.2212 5.28872 11.8943 4.94889 11.8943 4.5191L11.8934 3.70951Z" fill="#10272B"/>
</svg>
