<svg width="20" height="20" viewBox="0 0 20 20" fill="none" xmlns="http://www.w3.org/2000/svg">
<path d="M9.99999 6.74561C8.208 6.74561 6.7456 8.20801 6.7456 10C6.7456 11.792 8.208 13.2544 9.99999 13.2544C11.792 13.2544 13.2544 11.792 13.2544 10C13.2544 8.20801 11.792 6.74561 9.99999 6.74561ZM19.7607 10C19.7607 8.65234 19.7729 7.3169 19.6973 5.97168C19.6216 4.40918 19.2651 3.02246 18.1226 1.87988C16.9775 0.734864 15.5933 0.380861 14.0308 0.305177C12.6831 0.229494 11.3476 0.241701 10.0024 0.241701C8.65478 0.241701 7.31933 0.229494 5.97411 0.305177C4.41161 0.380861 3.0249 0.737306 1.88232 1.87988C0.737298 3.0249 0.383295 4.40918 0.307611 5.97168C0.231927 7.31934 0.244134 8.65479 0.244134 10C0.244134 11.3452 0.231927 12.6831 0.307611 14.0283C0.383295 15.5908 0.73974 16.9775 1.88232 18.1201C3.02734 19.2651 4.41161 19.6191 5.97411 19.6948C7.32177 19.7705 8.65722 19.7583 10.0024 19.7583C11.3501 19.7583 12.6855 19.7705 14.0308 19.6948C15.5933 19.6191 16.98 19.2627 18.1226 18.1201C19.2676 16.9751 19.6216 15.5908 19.6973 14.0283C19.7754 12.6831 19.7607 11.3477 19.7607 10ZM9.99999 15.0073C7.229 15.0073 4.99267 12.771 4.99267 10C4.99267 7.229 7.229 4.99268 9.99999 4.99268C12.771 4.99268 15.0073 7.229 15.0073 10C15.0073 12.771 12.771 15.0073 9.99999 15.0073ZM15.2124 5.95703C14.5654 5.95703 14.043 5.43457 14.043 4.7876C14.043 4.14063 14.5654 3.61817 15.2124 3.61817C15.8594 3.61817 16.3818 4.14063 16.3818 4.7876C16.382 4.94123 16.3519 5.09338 16.2932 5.23535C16.2345 5.37732 16.1484 5.50631 16.0397 5.61494C15.9311 5.72357 15.8021 5.80971 15.6601 5.86841C15.5182 5.92711 15.366 5.95723 15.2124 5.95703Z" fill="#10272B"/>
</svg>
