<svg width="19" height="20" viewBox="0 0 19 20" fill="none" xmlns="http://www.w3.org/2000/svg">
<g clip-path="url(#clip0_12_97)">
<path d="M18.0556 0.277779H1.38455C0.62066 0.277779 0 0.907119 0 1.67969V18.3203C0 19.0929 0.62066 19.7222 1.38455 19.7222H18.0556C18.8194 19.7222 19.4444 19.0929 19.4444 18.3203V1.67969C19.4444 0.907119 18.8194 0.277779 18.0556 0.277779ZM5.87674 16.9444H2.99479V7.66493H5.88108V16.9444H5.87674ZM4.43576 6.39757C3.51128 6.39757 2.76476 5.6467 2.76476 4.72656C2.76476 3.80642 3.51128 3.05556 4.43576 3.05556C5.3559 3.05556 6.10677 3.80642 6.10677 4.72656C6.10677 5.65104 5.36024 6.39757 4.43576 6.39757ZM16.6797 16.9444H13.7977V12.4306C13.7977 11.3542 13.776 9.96962 12.3003 9.96962C10.7986 9.96962 10.5686 11.1415 10.5686 12.3524V16.9444H7.68663V7.66493H10.4514V8.93229H10.4905C10.8767 8.20313 11.8186 7.4349 13.2205 7.4349C16.1372 7.4349 16.6797 9.35764 16.6797 11.8576V16.9444Z" fill="#10272B"/>
</g>
<defs>
<clipPath id="clip0_12_97">
<rect width="18.8889" height="20" rx="3" fill="white"/>
</clipPath>
</defs>
</svg>
